<?xml version="1.0" encoding="utf-8" ?><svg xmlns="http://www.w3.org/2000/svg" xmlns:xlink="http://www.w3.org/1999/xlink" width="740" height="738" viewBox="0 0 740 738"><clipPath id="cl_3"><rect width="740" height="738"/></clipPath><g clip-path="url(#cl_3)"><path fill="#612D43" transform="translate(-127 -138)" d="M480.813 143.72C488.749 143.699 497.621 143.284 505.582 143.693C529.767 144.937 553.715 149.336 577.154 155.283C582.634 157.082 588.094 159.625 593.479 161.623C619.118 171.137 641.536 185.698 664.751 199.765C667.707 201.711 670.475 204.417 673.409 206.344C716.419 234.586 757.882 263.157 789.575 304.433C834.04 362.341 859.336 436.393 857.509 509.597C857.29 517.31 857.82 526.073 857.315 533.658C845.339 713.435 689.372 861.363 510.255 869.039C510.072 869.077 509.89 869.116 509.707 869.154C499.841 869.096 489.95 868.656 480.082 868.601C430.336 868.327 379.116 852.649 336.766 826.734C331.144 823.051 324.04 820.015 318.619 816.148C278.809 787.755 240.048 757.529 206.86 721.429C199.696 713.636 192.935 703.268 186.956 694.57C156.342 650.033 137.912 597.054 133.187 543.265C126.045 448.866 161.046 349.357 220.971 276.806C266.414 221.789 328.193 179.939 396.171 158.653C424.639 149.739 451.538 146.692 480.813 143.72Z"/><path fill="#FEC84F" transform="translate(-127 -138)" d="M479.832 176.219C521.501 174.052 564.218 181.219 601.795 199.315C683.821 238.815 731.484 324.763 737.674 413.417C750.18 592.537 601.511 765.675 421.625 775.968L421.152 775.993C314.606 781.55 215.877 719.092 179.705 618.383C172.039 597.04 165.459 576.396 163.184 553.704C144.595 368.271 290.979 185.537 479.832 176.219Z"/><path fill="#612D43" transform="translate(-127 -138)" d="M473.163 221.205C473.323 221.186 473.482 221.167 473.641 221.148C521.302 218.633 577.312 232.453 614.812 262.385C650.622 290.968 676.912 331.761 688.628 375.684C692.076 387.264 694.869 398.92 696.141 410.931C708.241 525.189 639.787 642.838 541.049 698.646C505.765 718.589 471.039 729.582 430.124 733.943C341.2 737.404 265.286 695.827 227.008 614.811C179.491 514.241 211.023 398.687 281.834 317.832C333.01 259.396 395.889 227.188 473.163 221.205Z"/><path fill="#F87589" transform="translate(-127 -138)" d="M484.589 251.729C530.79 252.427 574.584 265.952 609.039 298.228C616.075 304.438 621.3 312.228 627.345 319.2C656.247 351.918 666.758 396.176 667.316 439.088C668.853 557.346 573.819 674.239 458.184 698.136C444.732 700.916 431.214 703.328 417.434 703.542C409.254 703.637 401.28 703.788 392.912 702.699C370.595 699.793 344.748 690.129 324.648 680.12C316.257 675.941 304.961 666.617 298.345 660.473C260.173 625.023 235.947 578.26 234.629 525.635C234.308 512.827 234.014 494.625 236.058 481.707C242.251 442.586 259.013 400.916 280.503 367.755C287.331 357.219 296.034 347.248 304.341 338.254C335.995 303.987 368.613 279.237 413.309 264.618C437.823 256.6 458.43 252.62 484.589 251.729Z"/><path fill="#612D43" transform="translate(-127 -138)" d="M554.883 322.724C575.849 322.095 584.066 335.968 587.041 354.727C589.599 370.863 587.867 378.109 576.59 390.426C570.674 396.886 564.34 404.033 558.476 410.652L485.7 492.778C474.599 505.087 455.036 524.482 446.006 536.906C460.343 535.081 474.109 532.254 488.731 530.369C499.826 528.939 521.428 524.521 530.93 532.032C536.268 536.252 541.958 544.488 542.756 551.183C543.991 561.553 540.42 569.931 536.443 579.262C531.806 591.939 530.681 604.892 521.89 615.965C511.863 628.594 500.34 624.113 486.364 625.028C460.838 626.414 435.213 626.101 409.67 626.836C395.51 627.243 380.442 626.691 366.375 627.949L343.175 628.501C330.887 628.699 320.722 628.024 311.461 618.971C305.715 613.354 305.295 606.563 303.314 599.312C301.068 591.162 298.209 583.279 298.376 574.705C298.502 568.217 301.345 563.867 305.086 558.851C309.084 553.557 313.726 548.736 318.119 543.767C337.138 522.253 358.807 503.423 377.933 482.01C386.078 472.891 394.044 463.856 402.048 454.62C412.377 442.702 423.268 430.042 434.816 419.3C417.38 419.322 398.65 418.966 381.358 416.744C366.732 413.679 365.853 399.969 364.381 388.761C362.525 374.637 381.67 330.15 396.382 328.837C448.616 324.173 502.243 324.598 554.883 322.724Z"/><path fill="#7CB79E" transform="translate(-127 -138)" d="M550.303 347.72C552.458 347.537 554.828 347.166 556.635 348.596C560.947 352.009 561.86 362.368 562.767 367.815C559.51 372.562 550.374 382.226 546.223 386.817L511.404 424.914C476.999 462.757 443.66 501.652 409.391 539.629C404.522 545.024 399.505 556.354 407.206 561.771C418.086 569.424 438.272 561.441 449.682 560.705C459.065 560.101 508.862 552.102 513.873 556.112C516.586 566.037 506.313 588.678 502.431 598.893C497.098 599.667 490.171 599.938 484.734 600.01C461.181 600.32 437.63 601.309 414.094 601.906C396.102 602.362 378.079 602.109 360.099 602.961C351.228 603.072 342.242 603.808 333.342 603.802C323.842 596.121 324.609 589.064 321.363 577.135C324.74 572.247 331.524 565.618 335.852 561.1C346.022 550.482 356.798 540.253 367.047 529.704C392.023 503.994 416.384 477.63 440.535 451.148C447.186 443.855 453.75 436.531 460.368 429.21C465.68 423.373 471.253 417.996 476.332 411.93C480.007 407.541 483.534 401.899 480.093 396.229C478.274 393.23 475.488 391.729 472.097 391.374C465.44 390.676 458.754 392.858 452.13 393.313C441.027 393.254 402.965 396.031 394.008 393.938C383.596 385.576 398.125 364.152 402.335 354.918C402.936 353.602 406.647 352.862 408.1 352.812C455.422 351.173 503.039 350.337 550.303 347.72Z"/><path fill="#EC5C77" transform="translate(-127 -138)" d="M301.175 413.214C304.5 414.125 309.277 414.356 310.559 417.515C310.354 419.57 309.319 420.674 308.133 422.412C305.183 422.111 300.965 421.116 300.046 417.964C300.938 417.061 300.456 417.482 301.495 416.704C300.602 415.918 300.595 416.002 300.222 414.889L301.175 413.214Z"/><path fill="#EC5C77" transform="translate(-127 -138)" d="M630.323 500.377C636.041 501.339 638.325 506.208 634.344 510.228C631.518 509.763 630.438 509.495 627.719 508.592C628.384 505.279 628.369 503.251 630.323 500.377Z"/><path fill="#EC5C77" transform="translate(-127 -138)" d="M509.421 282.06C515.476 283.939 513.4 289.51 508.764 291.803C506.24 289.91 503.765 288.752 504.363 285.411C505.722 283.593 507.343 283.076 509.421 282.06Z"/><path fill="#EC5C77" transform="translate(-127 -138)" d="M623.737 387.794C627.237 387.544 628.94 390.288 628.56 393.547C627.336 395.356 627.828 394.771 625.465 395.709C622.533 395.089 620.178 395.005 620.269 391.526C621.261 389.461 621.84 389.242 623.737 387.794Z"/><path fill="#EC5C77" transform="translate(-127 -138)" d="M289.308 528.429L291.11 529.405C291.924 530.664 292.348 532.653 291.755 533.987C290.203 537.475 289.117 536.96 286.653 536.048C285.246 535.664 285.328 535.667 284.138 534.802C283.423 532.864 283.419 533.785 283.937 531.951C285.396 530.224 287.268 529.496 289.308 528.429Z"/><path fill="#EC5C77" transform="translate(-127 -138)" d="M625.568 469.031C627.281 470.486 629.667 474.779 627.871 476.915C626.318 477.223 626.003 476.986 624.473 476.564L622.253 476.778C620.314 475.863 620.564 475.53 619.122 473.484C621.804 471.848 623.07 471.013 625.568 469.031Z"/><path fill="#EC5C77" transform="translate(-127 -138)" d="M343.953 345.718C346.075 346.757 347.736 349.3 347.2 351.674C346.832 353.3 345.624 353.715 344.362 354.595C341.852 353.81 340.71 350.493 341.21 348.09C341.532 346.539 342.681 346.374 343.953 345.718Z"/><path fill="#EC5C77" transform="translate(-127 -138)" d="M439.673 655.762L441.203 656.077C442.963 657.336 443.546 659.095 444.538 661.093L440.742 663.403C438.962 663.024 437.499 661.756 435.983 660.674L439.673 655.762Z"/><path fill="#EC5C77" transform="translate(-127 -138)" d="M533.816 484.819C535.878 485.144 539.776 485.067 541.157 486.194C541.761 487.854 540.997 489.635 540.502 491.42L539.003 491.569C535.698 490.225 533.975 488.528 533.816 484.819Z"/><path fill="#EC5C77" transform="translate(-127 -138)" d="M315.54 369.19C317.225 369.997 319.041 370.629 320.104 372.096C320.324 374.282 320.125 373.775 318.872 376.114C317.285 376.496 317.167 376.641 315.535 376.31C312.911 374.023 313.882 371.798 315.54 369.19Z"/><path fill="#EC5C77" transform="translate(-127 -138)" d="M350.908 464.16C352.475 464.409 352.408 464.45 353.814 465.237C355.237 467.332 355.124 467.59 355.218 470.238L354.174 470.887C352.672 471.529 352.452 471.788 350.829 471.617C348.317 469.482 349.558 466.692 350.908 464.16Z"/><path fill="#EC5C77" transform="translate(-127 -138)" d="M577.548 570.459C580.089 570.724 580.936 570.499 582.35 572.726C582.575 574.778 581.722 576.51 581.023 578.516C577.827 576.551 574.915 574.224 577.548 570.459Z"/><path fill="#EC5C77" transform="translate(-127 -138)" d="M374.988 657.227L376.683 657.584C379.515 659.93 379.438 661.483 377.314 664.181C375.664 664.212 375.392 664.337 373.841 663.727C371.69 661.072 373.041 659.517 374.988 657.227Z"/><path fill="#EC5C77" transform="translate(-127 -138)" d="M564.454 426.539C567.137 426.38 571.715 427.675 571.834 430.701L570.921 431.324C568.399 431.621 566.665 432.323 564.712 430.664C564.592 429.076 564.289 428.132 564.454 426.539Z"/><path fill="#EC5C77" transform="translate(-127 -138)" d="M278.394 444.038C278.304 446.453 277.421 449.485 275.487 450.989L274.457 450.717C272.861 448.94 272.795 449.273 272.739 447.373C273.785 445.823 276.56 444.873 278.394 444.038Z"/><path fill="#EC5C77" transform="translate(-127 -138)" d="M372.788 309.595C374.552 310.113 375.378 310.348 376.53 311.777C376.929 313.875 376.967 312.817 376.063 315.032C374.295 315.533 374.107 315.387 372.803 314.362C372.101 312.291 372.359 311.844 372.788 309.595Z"/><path fill="#FEC84F" transform="translate(-127 -138)" d="M717.861 617.93C733.237 627.04 748.635 637.099 763.981 646.407C769.598 649.813 784.806 658.416 789.384 662.025C784.814 669.745 779.938 678.774 775.184 686.119C761.139 707.821 738.559 734.649 718.362 750.707C711.673 756.033 705.464 761.147 698.972 766.71C697.069 764.578 633.529 725.995 628.311 723.47C629.617 722.144 634.238 718.465 635.877 717.092C640.472 713.242 643.458 710.332 647.509 706.019C649.852 703.495 652.838 700.696 655.367 698.34C680.825 674.636 699.797 647.462 717.861 617.93Z"/><path fill="#FDA838" transform="translate(-127 -138)" d="M628.311 723.47C629.617 722.144 634.238 718.465 635.877 717.092C640.472 713.242 643.458 710.332 647.509 706.019C652.359 710.157 658.855 713.855 664.247 717.342C678.726 726.705 693.542 735.576 708.31 744.472C711.707 746.518 715.119 748.409 718.362 750.707C711.673 756.033 705.464 761.147 698.972 766.71C697.069 764.578 633.529 725.995 628.311 723.47Z"/><path fill="#FDA838" transform="translate(-127 -138)" d="M720.663 678.883C725.785 678.703 731.204 681.298 726.89 686.719L721.548 687.991C720.498 684.439 719.455 682.37 720.663 678.883Z"/><path fill="#FDA838" transform="translate(-127 -138)" d="M699.039 705.348C702.031 705.333 704.856 705.377 706.454 708.192C706.043 710.269 705.996 709.749 704.174 711.553C702.501 712.202 701.263 712.668 699.716 711.624C696.01 709.127 697.173 707.604 699.039 705.348Z"/><path fill="#FEC84F" transform="translate(-127 -138)" d="M765.78 480.677C767.725 481.954 771.272 483.758 773.606 485.206C783.128 491.116 792.719 497.039 802.477 502.551C811.032 507.385 820.171 513.603 829.027 517.654C828.462 525.2 827.981 533.309 827.093 540.777C826.455 546.031 825.603 551.263 824.965 556.496C821.332 586.256 811.892 613.658 800.436 641.27C798.045 646.794 793.26 657.509 789.384 662.025C784.806 658.416 769.598 649.813 763.981 646.407C748.635 637.099 733.237 627.04 717.861 617.93C721.096 612.618 725.554 603.41 728.602 597.633C738.991 576.54 748.7 554.912 755.141 532.24C757.695 523.249 759.786 512.807 761.819 503.597C762.578 498.012 764.634 486.093 765.78 480.677Z"/><path fill="#FDA838" transform="translate(-127 -138)" d="M717.861 617.93C721.096 612.618 725.554 603.41 728.602 597.633C734.125 602.496 795.57 639.691 800.436 641.27C798.045 646.794 793.26 657.509 789.384 662.025C784.806 658.416 769.598 649.813 763.981 646.407C748.635 637.099 733.237 627.04 717.861 617.93Z"/><path fill="#FDA838" transform="translate(-127 -138)" d="M765.78 480.677C767.725 481.954 771.272 483.758 773.606 485.206C783.128 491.116 792.719 497.039 802.477 502.551C811.032 507.385 820.171 513.603 829.027 517.654C828.462 525.2 827.981 533.309 827.093 540.777C818.425 538.388 786.422 516.313 776.411 511.188C772.131 508.997 767.176 504.794 761.819 503.597C762.578 498.012 764.634 486.093 765.78 480.677Z"/><path fill="#FDA838" transform="translate(-127 -138)" d="M763.468 552.417C766.86 552.402 769.732 555.025 769.572 558.5C768.537 560.167 768.934 559.628 766.886 560.59C763.888 559.885 760.221 559.39 759.939 555.809C760.703 554.027 761.846 553.524 763.468 552.417Z"/><path fill="#FEC84F" transform="translate(-127 -138)" d="M628.311 723.47C633.529 725.995 697.069 764.578 698.972 766.71C674.624 787.416 634.435 810.945 603.82 820.475C590.689 813.487 540.397 793.181 540.147 778.348C572.301 764.47 601.372 745.827 628.311 723.47Z"/><path fill="#FDA838" transform="translate(-127 -138)" d="M642.123 764.699C644.361 763.827 646.888 764.878 647.849 767.08C648.81 769.281 647.861 771.848 645.7 772.897C644.222 773.613 642.471 773.463 641.137 772.506C639.803 771.549 639.1 769.938 639.306 768.309C639.512 766.68 640.593 765.294 642.123 764.699Z"/><path fill="#FDA838" transform="translate(-127 -138)" d="M376.743 805.753C392.59 806.648 419.728 807.337 435.559 806.11C462.441 804.026 495.466 796.089 520.853 786.995C525.604 785.293 534.648 780.663 540.147 778.348C540.397 793.181 590.689 813.487 603.82 820.475C547.529 840.762 481.042 846.199 422.682 831.631C416.29 830.035 402.88 826.795 397.197 823.719C387.34 821.095 357.569 807.8 349.918 801.97C359.14 803.927 367.379 804.711 376.743 805.753Z"/><path fill="#FEC84F" transform="translate(-127 -138)" d="M397.197 823.719C387.34 821.095 357.569 807.8 349.918 801.97C359.14 803.927 367.379 804.711 376.743 805.753C379.592 811 394.039 815.769 397.021 823.254L397.197 823.719Z"/><path fill="#FEC84F" transform="translate(-127 -138)" d="M762.169 371.404C770.572 375.344 777.787 379.8 785.732 384.515C790.884 387.572 802.088 395.186 807.782 394.253C811.76 405.979 815.29 418.281 818.552 430.241C827.037 458.921 830.017 487.842 829.027 517.654C820.171 513.603 811.032 507.385 802.477 502.551C792.719 497.039 783.128 491.116 773.606 485.206C771.272 483.758 767.725 481.954 765.78 480.677C769.004 449.54 769.569 430.994 766.794 399.887C765.053 391.538 763.866 380.512 762.169 371.404Z"/><path fill="#FDA838" transform="translate(-127 -138)" d="M762.169 371.404C770.572 375.344 777.787 379.8 785.732 384.515C790.884 387.572 802.088 395.186 807.782 394.253C811.76 405.979 815.29 418.281 818.552 430.241C809.372 426.125 772.483 400.59 766.794 399.887C765.053 391.538 763.866 380.512 762.169 371.404Z"/><path fill="#FEC84F" transform="translate(-127 -138)" d="M733.168 286.088C736.45 288.78 738.622 290.827 741.49 293.905C758.801 308.231 772.029 330.145 784.128 348.85C794.082 364.237 801.19 376.976 807.782 394.253C802.088 395.186 790.884 387.572 785.732 384.515C777.787 379.8 770.572 375.344 762.169 371.404C761.457 369.597 760.981 367.039 760.494 365.086C756.979 350.998 753.25 336.731 748.557 322.993C745.392 313.726 741.413 304.542 737.693 295.489C736.064 292.335 734.654 289.314 733.168 286.088Z"/><path fill="#FEC84F" transform="translate(-127 -138)" d="M733.168 286.088C736.45 288.78 738.622 290.827 741.49 293.905C740.305 293.469 739.374 293.121 738.211 292.607C737.636 293.766 737.757 294.165 737.693 295.489C736.064 292.335 734.654 289.314 733.168 286.088Z"/></g></svg>