<?xml version="1.0" encoding="utf-8" ?><svg xmlns="http://www.w3.org/2000/svg" xmlns:xlink="http://www.w3.org/1999/xlink" width="792" height="1329" viewBox="0 0 792 1329"><clipPath id="cl_3"><rect x="-0.0009765625" width="792" height="1329"/></clipPath><g clip-path="url(#cl_3)"><path fill="#6B2F5B" transform="translate(-117.001 -102)" d="M324.261 361.557C256.069 340.234 218.723 268.005 238.916 199.87C248.824 166.438 272.514 143.207 302.489 126.578C332.311 110.171 368.335 108.752 400.334 118.956C407.626 121.281 420.904 126.712 427.174 131.125C446.28 144.57 465.075 158.759 484.164 172.387L620.968 269.977L726.545 344.577C741.084 354.754 768.669 372.585 781.207 383.042C824.632 383.954 851.815 386.508 883.185 419.721C933.41 472.896 932.48 555.292 876.225 603.49L876.197 940.274C887.63 949.588 893.73 957.931 900.073 971.126C908.321 988.283 907.2 1002.36 907.233 1020.69L907.307 1063.29L907.443 1203.82L907.399 1333.12C907.377 1353.77 907.936 1374.68 906.901 1395.24C906.59 1401.4 901.394 1409.29 897.732 1413.98C882.828 1433.08 852.808 1428.69 831.225 1428.63L762.942 1428.74L684.179 1428.6C656.942 1428.61 616.677 1435.03 606.499 1401.89C603.519 1394.4 604.615 1362.41 604.614 1352.81L604.609 1277.2L604.489 1204.71C604.451 1192.63 603.511 1156.93 606.244 1147.58C608.866 1125.98 623.566 1100.28 640.881 1087.16C656.955 1074.98 670.874 1071.77 689.933 1067.84C689.501 1055.77 689.968 1043.73 689.88 1031.62C689.73 1010.83 688.455 992.508 697.218 973.002C704.294 957.251 711.287 949.2 724.764 938.557L724.782 616.96C697.296 596.7 674.919 565.271 669.76 531.103L669.646 530.321C631.342 501.646 590.037 475.191 551.153 447.416L469.913 390.403C453.093 378.64 433.873 364.051 416.161 353.904C407.824 358.642 402.804 360.56 393.605 363.399L395.365 541.488C440.32 557.602 449.408 594.125 446.953 636.824C465.177 643.191 484.22 650.327 501.846 657.107C525.478 666.197 563.58 675.621 562.413 707.442C561.745 725.635 554.68 754.06 548.84 771.819C561.152 783.097 566.963 799.737 567.275 816.066C567.61 833.617 567.396 851.554 567.371 869.119L567.442 962.806L567.532 1024.91C567.577 1041.26 568.537 1057.49 565.653 1073.74C559.984 1105.68 530.695 1129.61 498.469 1130.04C474.702 1130.35 450.777 1130.08 426.967 1130.05L296.693 1130.06L229.957 1130.07C199.705 1130.14 171.226 1133.91 147.185 1110.74C120.019 1084.55 125.857 1055.3 125.807 1021.25L125.957 890.806L125.887 839.156C125.846 828.561 125.011 814.755 126.871 804.506C131.052 781.462 146.177 764.512 167.739 756.463C159.757 730.666 147.262 695.234 174.657 676.311C182.525 670.876 194.56 666.814 203.493 663.095C226.524 653.507 250.444 646.083 273.831 637.517C270.601 595.478 280.047 556.642 325.255 541.941C324.415 526.282 324.93 507.098 324.917 491.01L324.702 407.537C324.691 393.491 325.193 375.341 324.261 361.557ZM255.836 749.604L384.932 749.634C413.167 749.624 443.39 750.143 471.438 749.499C473.369 742.545 473.734 740.024 474.71 732.758C451.949 723.707 430.123 713.49 407.907 703.247C399.132 699.201 383.338 690.706 374.869 688.082C371.722 687.107 348.733 687.705 343.812 687.774C314.833 702.374 283.023 716.5 253.45 730.146C253.801 736.987 254.223 742.851 255.836 749.604Z"/><path fill="#7CC9AF" transform="translate(-117.001 -102)" d="M198.048 780.253C219.938 779.505 246.14 780.2 268.267 780.252L403.059 780.54L474.288 780.54C484.378 780.519 495.702 779.685 505.486 780.406C519.1 781.41 532.891 793.616 534.754 807.279C535.705 814.251 536.46 821.286 536.464 828.284C536.492 881.603 536.42 934.947 536.442 988.263L536.447 1037.8C536.444 1043.82 536.518 1049.87 536.332 1055.89C535.557 1081.02 522.793 1097.88 496.707 1098.18L293.138 1098.28L229.101 1098.28C202.873 1098.28 162.625 1104.08 157.769 1067.09C155.911 1052.93 156.937 1035.27 156.962 1020.78L157.049 936.365L157.003 857.052C156.977 819.987 150.283 786.354 198.048 780.253Z"/><path fill="#6B2F5B" transform="translate(-117.001 -102)" d="M292.333 825.153C301.445 824.612 310.927 825.109 318.91 829.993C354.732 851.911 389.883 875.144 425.498 897.408C443.928 908.93 460.74 921.174 455.439 945.78C450.454 968.919 430.453 979.362 412.078 990.907L382.66 1009.41C363.183 1021.7 343.817 1034.38 324.47 1045.76C299.835 1060.23 268.362 1049.37 262.273 1021.18C259.309 994.866 258.318 962.588 259.811 935.925C261.877 899.038 247.254 838.065 292.333 825.153Z"/><path fill="#FA719C" transform="translate(-117.001 -102)" d="M297.758 857.35C300.003 857.054 302.152 856.829 304.407 857.227C309.301 858.089 406.708 921.288 415.837 927.869C418.844 930.036 422.521 932.731 424.585 935.862C425.792 937.695 425.957 939.218 425.416 941.399C422.764 952.074 386.397 971.903 375.65 978.836C363.712 986.463 314.664 1018.24 303.457 1021.6C297.423 1020.09 292.239 1017.48 291.598 1010.38C290.841 1002.01 291.069 993.421 291.06 985.011L291.073 940.629L291.111 893.836C291.13 884.685 290.92 875.123 291.693 866.009C292.043 861.87 294.771 859.78 297.758 857.35Z"/><path fill="#FA719C" transform="translate(-117.001 -102)" d="M713.126 1099.09C740.912 1098.4 768.995 1098.95 797.262 1098.91C816.343 1098.89 850.792 1096.09 867.681 1105.11C878.361 1110.82 875.638 1134.03 875.654 1145.25L875.718 1205.41L875.76 1321.32C875.754 1341.1 876.282 1361.03 875.64 1380.78C875.558 1383.32 875.185 1392.4 873.524 1394.04C867.788 1399.7 807.724 1397.65 795.757 1397.63L699.001 1397.64C683.521 1397.63 667.494 1397.85 652.027 1397.37C649.018 1397.28 641.243 1396.06 639.127 1393.87C636.375 1391.03 636.185 1388.59 636.14 1384.79C635.954 1369.07 636.077 1353.18 636.114 1337.46L636.14 1251.03L636.121 1192.24C636.137 1180.18 635.128 1162.44 637.765 1151.02C647.088 1110.62 677.732 1100.31 713.126 1099.09Z"/><path fill="#7CC9AF" transform="translate(-117.001 -102)" d="M483.596 211.845C488.514 214.18 506.805 227.613 512.15 231.426L572.893 275.006C629.037 315.067 686.22 353.628 742.478 393.386C705.314 408.449 691.201 426.862 677.352 463.416C674.309 473.088 672.48 480.711 670.157 490.572C648.807 476.839 625.328 459.734 604.148 445.062L446.477 335.163C481.983 296.449 491.713 263.552 483.596 211.845Z"/><path fill="#7CC9AF" transform="translate(-117.001 -102)" d="M355.941 144.213C408.798 141.751 453.646 182.587 456.121 235.43C458.596 288.273 417.761 333.12 364.906 335.608C312.032 338.096 267.155 297.254 264.679 244.393C262.203 191.531 303.066 146.675 355.941 144.213Z"/><path fill="#6B2F5B" transform="translate(-117.001 -102)" d="M354.337 186.633C383.942 183.166 410.808 204.204 414.535 233.77C418.261 263.337 397.453 290.38 367.914 294.363C338.006 298.397 310.546 277.279 306.773 247.344C303.001 217.41 324.363 190.142 354.337 186.633Z"/><path fill="#FEE6B0" transform="translate(-117.001 -102)" d="M355.571 219.837C368.412 218.835 379.492 223.173 382.198 236.691C385.244 251.911 379.06 261.488 364.277 264.422C332.192 264.029 325.429 227.653 355.571 219.837Z"/><path fill="#7CC9AF" transform="translate(-117.001 -102)" d="M781.557 415.343C833.244 408.149 880.934 444.325 887.922 496.027C894.91 547.729 858.534 595.262 806.792 602.041C755.343 608.781 708.126 572.665 701.177 521.256C694.229 469.846 730.164 422.496 781.557 415.343Z"/><path fill="#6B2F5B" transform="translate(-117.001 -102)" d="M790.946 454.966C820.971 453.01 846.927 475.691 849.005 505.7C851.084 535.71 828.502 561.751 798.494 563.951C768.314 566.163 742.084 543.429 739.994 513.247C737.903 483.066 760.749 456.934 790.946 454.966Z"/><path fill="#FEE6B0" transform="translate(-117.001 -102)" d="M788.46 488.842C800.814 486.127 813.012 494.002 815.62 506.376C818.228 518.75 810.245 530.876 797.845 533.375C785.598 535.844 773.65 527.982 771.074 515.76C768.498 503.537 776.258 491.524 788.46 488.842Z"/><path fill="#7CC9AF" transform="translate(-117.001 -102)" d="M843.246 625.622C844.73 627.236 844.047 901.106 844.042 923.727C818.785 918.59 782.775 918.491 756.99 921.981L756.993 629.455C782.337 638.808 818.383 635.487 843.246 625.622Z"/><path fill="#7CC9AF" transform="translate(-117.001 -102)" d="M792.537 948.317C815.381 946.661 840.895 951.279 857.733 968.058C876.588 986.847 875.079 1006.51 874.775 1030.89L874.401 1066.25C851.093 1065.86 826.654 1066.23 803.259 1066.25C775.823 1066.21 748.588 1066.02 721.148 1066.48C721.814 1054.43 722.054 1037.32 721.577 1025.34C719.576 975.087 743.591 951.734 792.537 948.317Z"/><path fill="#6B2F5B" transform="translate(-117.001 -102)" d="M790.255 984.845C798.58 984.078 805.227 984.06 812.547 988.197C826.157 995.889 827.792 1014.93 816.421 1025.3C812.261 1029.09 809.725 1029.95 804.378 1031.21C797.305 1031.55 792.093 1031.92 785.202 1029.12C773.375 1024.3 767.941 1010 773.18 998.423C776.592 990.884 782.678 987.645 790.255 984.845Z"/><path fill="#7CC9AF" transform="translate(-117.001 -102)" d="M353.147 564.304C387.178 561.837 411.943 575.807 413.219 612.696C414.575 651.926 400.995 654.458 365.902 654.837C355.135 654.854 324.399 656.112 316.83 648.925C301.448 634.319 301.559 597.195 315.945 581.332C327.556 568.529 336.615 566.065 353.147 564.304Z"/><path fill="#7CC9AF" transform="translate(-117.001 -102)" d="M284.64 667.547C286.553 667.877 296.002 676.783 298.35 678.714C277.321 687.579 254.581 694.806 234.577 705.602C216.273 715.481 220.707 733.738 226.375 749.527C220.02 749.978 213.275 749.827 206.88 749.815L198.737 749.503C196.112 741.218 186.446 715.036 189.132 706.772C190.45 704.175 195.385 700.314 197.886 699.328C225.662 688.377 256.08 676.027 284.64 667.547Z"/><path fill="#7CC9AF" transform="translate(-117.001 -102)" d="M437.093 667.295C438.996 667.441 442.663 669.031 444.6 669.791C469.619 679.517 494.621 688.222 519.554 698.263C538.946 706.073 530.078 719.008 526.44 734.472C525.428 738.774 522.215 754.547 519.456 756.485L517.36 755.973C511.608 753.821 506.208 751.682 500.536 749.326C512.016 714.321 498.012 709.284 467.744 696.481C453.136 690.302 437.441 684.358 423.029 677.835C428.688 674.214 431.911 671.578 437.093 667.295Z"/><path fill="#7CC9AF" transform="translate(-117.001 -102)" d="M355.571 368.255C358.12 368.161 360.899 367.722 363.034 368.844C364.224 378.91 363.502 411.509 363.519 422.679L363.54 536.782C360.809 536.845 358.511 537.157 356.497 535.71C355.866 529.85 356.202 519.714 356.22 513.593L356.263 476.253L355.571 368.255Z"/></g></svg>