<?xml version="1.0" encoding="utf-8" ?><svg xmlns="http://www.w3.org/2000/svg" xmlns:xlink="http://www.w3.org/1999/xlink" width="801" height="1145" viewBox="0 0 801 1145"><clipPath id="cl_4"><rect width="801" height="1145"/></clipPath><g clip-path="url(#cl_4)"><path fill="#643850" transform="translate(0 -222)" d="M0 500.311C9.58924 491.251 21.1195 482.016 31.3332 473.458L77.2853 435.099L157.189 368.87C183.041 347.849 209.07 327.004 234.944 306.005C240.921 301.155 243.685 294.997 248.267 288.738C257.465 276.176 267.314 268.147 280.425 259.856C300.37 247.02 322.385 241.821 345.995 242.291C377.154 242.913 406.418 255.907 427.87 278.511C449.882 301.706 463.663 338.493 460.762 370.571C476.218 391.506 490.863 413.127 506.05 434.258L575.77 530.095C622.618 546.532 651.778 599.892 634.714 647.774C626.58 670.599 614.757 683.918 595.14 697.736C595.447 720.735 595.203 744.156 594.99 767.181C622.708 774.325 635.449 789.245 638.867 817.862L668.483 830.489C678.224 834.659 689.314 838.607 697.513 845.429C723.813 867.31 713.474 897.68 704.433 925.071C754.224 943.741 751.727 986.999 758.159 1031.43L773.874 1143.9L781.965 1201.77C785.284 1224.83 790.886 1246.93 782.43 1269.59C766.363 1312.65 723.087 1312.57 684.293 1318.24L599.218 1330.83L512.297 1344.16C487.695 1347.89 458.855 1355.4 435.162 1346.27C391.204 1329.31 391.878 1281.8 386.187 1242.34L372.898 1152.77L360.939 1070.61C359.024 1057.12 356.036 1041.91 355.446 1028.44C353.803 990.92 375.546 966.258 411.1 959.228C391.513 893.938 370.499 864.333 443.637 831.965C451.791 828.357 462.174 821.161 470.763 816.969C474.097 789.393 486.618 775.675 512.346 767.207C512.331 746.519 512.045 725.131 512.505 704.498C489.742 695.62 475.4 679.292 464.483 657.562C462.09 652.8 458.872 638.876 457.283 636.536C447.99 622.852 437.084 608.515 427.352 595.132L376.223 524.737C366.618 511.502 355.836 497.264 346.788 483.791C332.197 483.703 320.908 482.254 306.831 478.697C270.842 508.437 234.765 540.064 199.311 570.498L97.9956 656.893C67.3286 683.333 37.1232 710.234 5.74107 735.851C3.8043 737.432 2.0698 738.836 0 740.241L0 693.984L0 544.984L0 500.311ZM489.576 902.11C481.202 904.229 475.638 905.273 479.345 916.189C481.567 922.734 483.653 929.099 485.298 935.824C486.182 939.876 487.25 944.301 488.006 948.34C503.438 947.11 524.526 943.501 540.295 941.239L625.805 928.962C630.413 915.894 638.876 902.74 618.896 901.481C614.128 905.026 605.37 911.896 600.164 914.022C579.493 922.464 547.674 922.112 525.743 919.876C510.722 918.344 500.1 911.831 489.576 902.11Z"/><path fill="#A1D7CC" transform="translate(0 -222)" d="M201.727 381.177C203.554 383.881 203.2 386.91 203.651 390.062C208.53 424.195 223.378 457.034 249.308 480.253L72.9505 630.82L23.2697 673.824C16.0962 680.049 6.70383 687.673 0 693.984L0 544.984L201.727 381.177Z"/><path fill="#5AAD93" transform="translate(0 -222)" d="M201.727 381.177C208.579 375.556 216.054 369.646 222.593 363.743C223.751 404.469 239.089 436.255 271.869 460.724C265.266 467.145 256.499 474.266 249.308 480.253C223.378 457.034 208.53 424.195 203.651 390.062C203.2 386.91 203.554 383.881 201.727 381.177Z"/><path fill="#FCD156" transform="translate(0 -222)" d="M678.707 958.039C686.941 956.795 695.948 958.752 702.585 963.681C712.063 970.72 715.068 977.337 716.791 988.618C719.132 1003.95 721.203 1019.2 723.469 1034.47L741.282 1157.95L749.466 1215.42C751.712 1231.37 757.111 1249.55 746.854 1263.65C736.152 1278.37 716.267 1278.68 699.339 1281.13L648.982 1288.47L466.011 1316.11C452.084 1318.35 433.842 1310.45 429.905 1297.09C425.066 1280.67 422.906 1258.34 420.408 1241.26L403.684 1126.98L393.819 1058.74C391.323 1041.56 384.712 1021.42 395.713 1007.12C405.474 994.438 421.555 994.674 435.987 992.668L483.013 986.053L678.707 958.039Z"/><path fill="#5AAD93" transform="translate(0 -222)" d="M603.658 1029.29C619.868 1027.84 634.359 1031.47 647.74 1041.16C674.323 1060.41 671.704 1094.83 676.68 1123.72C678.883 1136.51 680.132 1149.81 682.561 1162.51C688.136 1191.64 672.672 1221.85 644.722 1232.7C630.974 1237.99 614.401 1238.91 599.664 1241.07L544.068 1249.37C522.164 1252.55 501.835 1243.75 488.259 1226.79C476.093 1211.59 474.841 1195.01 472.291 1176.59C469.671 1157.68 466.304 1139.21 463.765 1120.31C460.467 1100.41 460.546 1084.19 473.23 1067.28C486.529 1049.55 503.72 1043.35 525.045 1040.87C532.98 1039.94 541.65 1038.47 549.71 1037.29L603.658 1029.29Z"/><path fill="#C8E597" transform="translate(0 -222)" d="M602.211 1043.54C624.037 1039.5 646.361 1052.72 653.787 1073.36C656.57 1082.46 659.458 1094.94 659.921 1104.61C661.424 1136.05 680.746 1176.01 660.092 1203.62C645.357 1223.32 619.531 1223.9 597.855 1227.12L545.201 1234.98C531.235 1236.95 519.579 1234.64 508.005 1226.28C488.101 1211.9 487.422 1185.97 484.115 1163.85L476.833 1114.99C471.691 1078.75 491.248 1059.64 525.863 1055.12C551.159 1051.82 576.788 1046.81 602.211 1043.54Z"/><path fill="#5AAD93" transform="translate(0 -222)" d="M612.16 1153.36C624.899 1153.54 624.634 1166.36 619.299 1174.19C602.798 1198.43 568.009 1203.41 544.049 1188.46C539.108 1184.6 530.348 1173.73 536.825 1166.64C543.235 1161.09 551.672 1169.64 557.086 1171.49C582.025 1180.01 595.828 1169.52 612.16 1153.36Z"/><path fill="#5AAD93" transform="translate(0 -222)" d="M523.841 1107.68C534.888 1106.37 544.901 1114.27 546.187 1125.32C547.474 1136.37 539.545 1146.36 528.493 1147.62C517.477 1148.87 507.523 1140.98 506.241 1129.97C504.958 1118.96 512.832 1108.99 523.841 1107.68Z"/><path fill="#5AAD93" transform="translate(0 -222)" d="M611.723 1094.77C622.473 1092.43 633.104 1099.17 635.576 1109.89C638.048 1120.61 631.442 1131.32 620.754 1133.92C613.72 1135.64 606.307 1133.44 601.349 1128.16C596.391 1122.89 594.653 1115.36 596.801 1108.44C598.948 1101.53 604.649 1096.31 611.723 1094.77Z"/><path fill="#A1D7CC" transform="translate(0 -222)" d="M334.435 280.09C380.51 276.395 420.849 310.761 424.51 356.828C428.171 402.894 393.766 443.198 347.685 446.823C301.654 450.444 261.394 416.092 257.736 370.075C254.079 324.058 288.409 283.781 334.435 280.09Z"/><path fill="#643850" transform="translate(0 -222)" d="M335.009 320.743C358.793 317.296 380.879 333.75 384.375 357.522C387.871 381.293 371.457 403.406 347.687 406.949C323.849 410.502 301.654 394.035 298.148 370.196C294.642 346.357 311.157 324.2 335.009 320.743Z"/><path fill="#F8ADA9" transform="translate(0 -222)" d="M335.307 340.91C348.058 337.663 361.024 345.38 364.248 358.134C367.471 370.888 359.729 383.837 346.966 387.036C334.236 390.227 321.325 382.51 318.11 369.79C314.895 357.069 322.589 344.147 335.307 340.91Z"/><path fill="#A1D7CC" transform="translate(0 -222)" d="M383.938 475.82C414.862 463.643 433.789 444.765 449.251 415.848C453.935 422.83 458.753 429.066 463.858 435.72C483.296 461.458 501.613 488.277 521.093 514.014C524.618 518.673 528.021 523.488 531.212 528.382C498.52 532.68 475.761 556.359 462.765 585.159C446.707 561.934 429.43 539.471 413.275 516.299C409.116 510.334 404.903 504.18 400.563 498.371L383.938 475.82Z"/><path fill="#5AAD93" transform="translate(0 -222)" d="M383.938 475.82C414.862 463.643 433.789 444.765 449.251 415.848C453.935 422.83 458.753 429.066 463.858 435.72C459.625 441.256 456.896 448.705 452.832 454.502C440.301 472.378 420.841 490.023 400.563 498.371L383.938 475.82Z"/><path fill="#A1D7CC" transform="translate(0 -222)" d="M539.791 562.807C570.109 558.826 597.976 580.004 602.251 610.275C606.526 640.546 585.614 668.609 555.379 673.177C524.726 677.807 496.183 656.548 491.849 625.86C487.515 595.171 509.055 566.842 539.791 562.807Z"/><path fill="#643850" transform="translate(0 -222)" d="M541.882 590.025C557.324 587.191 572.154 597.364 575.066 612.787C577.978 628.211 567.877 643.088 552.465 646.077C536.942 649.087 521.932 638.901 518.999 623.367C516.067 607.834 526.33 592.879 541.882 590.025Z"/><path fill="#F8ADA9" transform="translate(0 -222)" d="M544.65 607.227C548.391 606.292 552.346 607.446 554.997 610.246C557.648 613.046 558.584 617.058 557.445 620.741C556.306 624.425 553.27 627.209 549.501 628.025C543.799 629.26 538.161 625.694 536.836 620.013C535.511 614.333 538.989 608.64 544.65 607.227Z"/><path fill="#A1D7CC" transform="translate(0 -222)" d="M525.804 799.605C539.742 799.262 576.778 797.775 589.696 802.192C611.045 809.492 609.662 862.358 596.054 875.837C591.946 879.904 588.215 882.179 582.07 884.567L581.376 884.752C574.778 886.458 568.734 885.73 562.401 885.895C529.441 886.754 503.147 889.732 502.913 846.897C502.804 826.798 500.433 805.51 525.804 799.605Z"/><path fill="#643850" transform="translate(0 -222)" d="M550.552 824.594C561.45 821.934 572.434 828.636 575.052 839.541C577.669 850.447 570.923 861.402 560.005 863.977C549.147 866.537 538.262 859.837 535.659 848.992C533.056 838.146 539.714 827.238 550.552 824.594Z"/><path fill="#5AAD93" transform="translate(0 -222)" d="M468.002 857.15C468.325 857.244 469.271 857.862 469.292 858.076C470.183 867.016 472.747 875.031 476.131 883.256C459.693 889.988 451.044 895.874 456.537 915.298C460.078 927.815 462.684 940.64 467.192 952.992L445.837 956.092C443.904 954.419 432.579 909.864 430.163 904.294C429.503 902.771 427.861 895.963 427.406 894.011C424.609 882.008 432.051 876.698 441.584 871.908C450.413 867.014 459.219 862.027 468.002 857.15Z"/><path fill="#5AAD93" transform="translate(0 -222)" d="M639.598 854.278C641.987 855.117 645.764 856.874 647.596 857.549C684.433 871.134 682.6 874.136 673.823 909.762C672.901 913.504 671.992 919.599 669.938 923.338L668.417 923.729C663.588 924.79 656.385 925.52 651.332 926.184C657.973 900.039 660.821 891.644 633.534 880.968C637.33 871.082 638.581 864.671 639.598 854.278Z"/><path fill="#5AAD93" transform="translate(0 -222)" d="M559.231 711.364C559.694 711.344 559.845 711.646 560.403 712.077C561.036 729.369 560.092 747.487 560.718 765.113C556.472 765.187 552.136 765.376 547.883 765.514C546.269 763.076 547.043 719.292 547.008 711.901C552.558 712.21 553.772 712.41 559.231 711.364Z"/></g></svg>